<?xml version="1.0" encoding="iso-8859-1"?>
<!-- Generator: Adobe Illustrator 19.0.0, SVG Export Plug-In . SVG Version: 6.00 Build 0)  -->
<svg xmlns="http://www.w3.org/2000/svg" xmlns:xlink="http://www.w3.org/1999/xlink" version="1.1" id="Capa_1" x="0px" y="0px" viewBox="0 0 512 512" style="enable-background:new 0 0 512 512;" xml:space="preserve">
<polygon style="fill:#FAEBC8;" points="304.097,7.5 207.903,7.5 175.839,47.581 336.161,47.581 "/>
<rect x="71.63" y="143.77" style="fill:#F5DCB4;" width="368.74" height="32.06"/>
<rect x="87.66" y="111.71" style="fill:#FAEBC8;" width="336.68" height="32.06"/>
<rect x="119.73" y="47.581" style="fill:#F5DCB4;" width="272.55" height="64.13"/>
<polygon style="fill:#EBC9A0;" points="440.371,207.903 71.629,207.903 55.597,175.839 456.403,175.839 "/>
<path style="fill:#F5DCB4;" d="M175.839,207.903V504.5h32.065V304.097C207.903,277.534,229.437,256,256,256  c26.563,0,48.097,21.534,48.097,48.097V504.5h32.065V207.903H175.839z"/>
<rect x="71.63" y="207.9" style="fill:#FAEBC8;" width="104.21" height="296.6"/>
<g>
	<rect x="71.63" y="328.14" style="fill:#F5DCB4;" width="104.21" height="64.13"/>
	<rect x="71.63" y="472.44" style="fill:#F5DCB4;" width="104.21" height="32.06"/>
	<circle style="fill:#F5DCB4;" cx="123.73" cy="264.02" r="16.03"/>
</g>
<rect x="336.16" y="207.9" style="fill:#FAEBC8;" width="104.21" height="296.6"/>
<g>
	<rect x="336.16" y="328.14" style="fill:#F5DCB4;" width="104.21" height="64.13"/>
	<rect x="336.16" y="472.44" style="fill:#F5DCB4;" width="104.21" height="32.06"/>
	<circle style="fill:#F5DCB4;" cx="388.27" cy="264.02" r="16.03"/>
</g>
<path d="M456.403,497h-8.532v-97.226h0.516c4.142,0,7.5-3.358,7.5-7.5s-3.358-7.5-7.5-7.5h-0.516v-49.129h0.516  c4.142,0,7.5-3.358,7.5-7.5s-3.358-7.5-7.5-7.5h-0.516V209.673l15.24-30.481c1.163-2.325,1.039-5.086-0.328-7.297  s-3.781-3.557-6.38-3.557h-8.532v-24.564c0-4.142-3.358-7.5-7.5-7.5h-8.532V111.71c0-4.142-3.358-7.5-7.5-7.5h-24.564V47.581  c0-4.142-3.358-7.5-7.5-7.5h-52.509L309.953,2.815C308.53,1.036,306.375,0,304.097,0h-96.193c-2.278,0-4.433,1.036-5.856,2.815  l-29.813,37.266h-52.509c-4.142,0-7.5,3.358-7.5,7.5v56.629H87.661c-4.142,0-7.5,3.358-7.5,7.5v24.564h-8.532  c-4.142,0-7.5,3.358-7.5,7.5v24.564h-8.532c-2.599,0-5.013,1.346-6.38,3.557c-1.367,2.211-1.491,4.972-0.328,7.297l15.24,30.481  v110.972h-0.516c-4.142,0-7.5,3.358-7.5,7.5s3.358,7.5,7.5,7.5h0.516v49.129h-0.516c-4.142,0-7.5,3.358-7.5,7.5s3.358,7.5,7.5,7.5  h0.516V497h-8.532c-4.142,0-7.5,3.358-7.5,7.5s3.358,7.5,7.5,7.5h400.807c4.142,0,7.5-3.358,7.5-7.5S460.545,497,456.403,497z   M343.661,479.936h88.694c0.174,0,0.345-0.014,0.516-0.026V497h-89.21V479.936z M432.871,464.962  c-0.171-0.012-0.342-0.026-0.516-0.026h-88.694v-65.161h89.21V464.962z M432.871,384.774h-89.21v-49.129h89.21V384.774z   M343.661,320.645v-8.531c0-4.142-3.358-7.5-7.5-7.5s-7.5,3.358-7.5,7.5V497h-17.064V304.097c0-28.112-20.977-51.401-48.097-55.077  v-9.052c0-4.142-3.358-7.5-7.5-7.5c-4.142,0-7.5,3.358-7.5,7.5v9.052c-27.12,3.675-48.097,26.965-48.097,55.077V497h-17.064V215.403  h145.322v64.647c0,4.142,3.358,7.5,7.5,7.5s7.5-3.358,7.5-7.5v-64.647h89.21v105.242H343.661z M256,263.5  c22.385,0,40.597,18.212,40.597,40.597V497h-81.193V304.097C215.403,281.712,233.615,263.5,256,263.5z M76.264,200.403  l-8.532-17.065h376.536l-8.532,17.065H76.264z M211.508,15h88.984l20.064,25.081H191.443L211.508,15z M127.226,55.081h208.936  c0.001,0,0.003,0,0.004,0s0.002,0,0.003,0h48.605v49.129H127.226V55.081z M79.129,151.274h297.113c4.142,0,7.5-3.358,7.5-7.5  s-3.358-7.5-7.5-7.5H95.161V119.21h321.678v17.064h-8.533c-4.142,0-7.5,3.358-7.5,7.5s3.358,7.5,7.5,7.5h24.565v17.064H79.129  V151.274z M79.129,215.403h89.21v105.242h-89.21C79.129,320.645,79.129,215.403,79.129,215.403z M79.129,335.645h89.21v49.129  h-89.21C79.129,384.774,79.129,335.645,79.129,335.645z M168.339,399.774v65.161H79.645c-0.174,0-0.345,0.014-0.516,0.026v-65.188  L168.339,399.774L168.339,399.774z M79.129,479.909c0.171,0.012,0.342,0.026,0.516,0.026h88.694V497h-89.21  C79.129,497,79.129,479.909,79.129,479.909z"/>
<path d="M312.113,72.145H199.887c-4.142,0-7.5,3.358-7.5,7.5s3.358,7.5,7.5,7.5h112.226c4.142,0,7.5-3.358,7.5-7.5  S316.255,72.145,312.113,72.145z"/>
<path d="M167.823,72.145h-0.081c-4.142,0-7.46,3.358-7.46,7.5s3.398,7.5,7.541,7.5s7.5-3.358,7.5-7.5S171.965,72.145,167.823,72.145  z"/>
<path d="M344.177,72.145h-0.08c-4.142,0-7.46,3.358-7.46,7.5s3.398,7.5,7.54,7.5s7.5-3.358,7.5-7.5S348.319,72.145,344.177,72.145z"/>
<path d="M143.774,352.71h-40.081c-4.142,0-7.5,3.358-7.5,7.5s3.358,7.5,7.5,7.5h40.081c4.142,0,7.5-3.358,7.5-7.5  S147.917,352.71,143.774,352.71z"/>
<path d="M368.226,367.71h40.081c4.142,0,7.5-3.358,7.5-7.5s-3.358-7.5-7.5-7.5h-40.081c-4.142,0-7.5,3.358-7.5,7.5  S364.083,367.71,368.226,367.71z"/>
<path d="M123.734,240.484c-12.976,0-23.532,10.557-23.532,23.532c0,12.975,10.557,23.532,23.532,23.532s23.532-10.557,23.532-23.532  S136.709,240.484,123.734,240.484z M123.734,272.548c-4.705,0-8.532-3.828-8.532-8.532s3.828-8.532,8.532-8.532  s8.532,3.828,8.532,8.532S128.438,272.548,123.734,272.548z"/>
<path d="M388.266,240.484c-12.976,0-23.532,10.557-23.532,23.532c0,12.975,10.557,23.532,23.532,23.532s23.532-10.557,23.532-23.532  S401.242,240.484,388.266,240.484z M388.266,272.548c-4.705,0-8.532-3.828-8.532-8.532s3.828-8.532,8.532-8.532  s8.532,3.828,8.532,8.532S392.971,272.548,388.266,272.548z"/>
<g>
</g>
<g>
</g>
<g>
</g>
<g>
</g>
<g>
</g>
<g>
</g>
<g>
</g>
<g>
</g>
<g>
</g>
<g>
</g>
<g>
</g>
<g>
</g>
<g>
</g>
<g>
</g>
<g>
</g>
</svg>
